<svg xmlns="http://www.w3.org/2000/svg" style="isolation:isolate" viewBox="0 0 390 60"><style>@keyframes rotate{100%{transform:rotate(360deg)}}#logo{animation:rotate linear 12s infinite;transform-origin:center;transform-box:fill-box}</style><linearGradient id="a" x1=".5" x2=".5" y1="1" y2="0" gradientTransform="matrix(366 0 0 30.04 12 15)" gradientUnits="userSpaceOnUse"><stop offset="2.1%" stop-color="#eb3349"/><stop offset="97.9%" stop-color="#f45c43"/></linearGradient><path fill="url(#a)" fill-rule="evenodd" d="M378 39v6h-30V15h30v6h-30v18h30Zm-27-6v-6h24v6h-24Zm-39 12h-6V15h6v30Zm3-24v-6h21v30h-21v-6h15V21h-15Zm-93 24V15h6v30h-6Zm9-24h21v-6h-21v6Zm0 24h21v-6h-21v6Zm-51-30h6v12l24 .1V45h-6V33h-24V15Zm21 24v6h-21v-6h21Zm9-24v6h-21v-6h21Zm-66 30h-6V15h6v30Zm15-18v6h-12v-6h12Zm9 18h-6V21h-15v-6h21v30ZM96 15h6v30h-6V15Zm24 0h6v30h-6V15Zm-15 3v9l12 15v-9l-12-15ZM60 45h-6V15h6v30Zm15-18v6H63v-6h12Zm9 18h-6V21H63v-6h21v30Zm-48 0h6V15h-6v30Zm-3-18v6H21v-6h12ZM12 45h6V15h-6v30Z"/><linearGradient id="b" x1=".5" x2=".5" y1="1" y2="0" gradientTransform="matrix(44.049 0 0 42 257 9)" gradientUnits="userSpaceOnUse"><stop offset="2.1%" stop-color="#eb3349"/><stop offset="97.9%" stop-color="#f45c43"/></linearGradient><path id="logo" fill="url(#b)" fill-rule="evenodd" d="M271 21.5a13.5 13.5 0 0 0 5.2 8.5l.8.6h-1a14 14 0 0 0-9.2 3.8c-1-.1-2.1-.4-3-.8-1.7-.8-3.2-1.9-4.4-3.2l-2.1-2.4c-.2-.2-.3-.5-.3-.8 0-.4.2-.8.6-1L260 25l-1.1-2.3-.2-.6c0-.2 0-.4.2-.6l.7-.4 3-.7a12.4 12.4 0 0 1 8.5 1Zm6.8 11.4-.3 1a13.4 13.4 0 0 0 .8 10l-.6 1a12.4 12.4 0 0 1-5.6 4.8l-3 1.2-.5.1a1 1 0 0 1-.6-.2l-.4-.8-.4-2.5-2.5.4h-.3a1 1 0 0 1-.7-.3 1 1 0 0 1-.3-.8v-.2l.2-3c.3-3 1.6-5.7 3.6-7.7h1.8c2.8 0 5.6-.8 8-2.4l.8-.6Zm1.2-3.7.3-1a13.7 13.7 0 0 1 6.5-7.6 12.5 12.5 0 0 0-1.6-8.3l-1.6-2.7c-.2-.4-.6-.6-1-.6-.2 0-.5.1-.8.4l-1.8 1.8-1.9-1.8a1 1 0 0 0-.8-.4 1 1 0 0 0-.9.6l-1.6 2.7a12.4 12.4 0 0 0-1.6 8.3l1.2.8c2.5 1.6 4.3 4 5.3 6.8l.3 1Zm1.2 3.7.9.6a13.8 13.8 0 0 0 9.8 2.3 13 13 0 0 1 3.5 7.7l.2 3.1v.2c0 .3 0 .6-.3.8a1 1 0 0 1-.7.3h-.3l-2.5-.4-.4 2.5c0 .3-.2.6-.4.8a1 1 0 0 1-.6.2l-.6-.1-2.9-1.2a12.4 12.4 0 0 1-6.2-5.8 14.1 14.1 0 0 0 .8-10l-.3-1Zm.8-2.3.8-.6a13.5 13.5 0 0 0 5.2-8.5 12.6 12.6 0 0 1 8.4-1l3 .6.8.4.2.6c0 .2 0 .4-.2.6l-1 2.3 2.2 1.2c.4.2.6.6.6 1 0 .3-.1.6-.3.8l-2 2.4a12.3 12.3 0 0 1-7.4 4 14 14 0 0 0-9.3-3.8h-1Z"/></svg>